<svg xmlns="http://www.w3.org/2000/svg" width="99.565" height="53.347" viewBox="0 0 99.565 53.347">
  <g id="arrow_09" transform="matrix(0.966, 0.259, -0.259, 0.966, -9.63, -5.835)">
    <path id="Path_18" data-name="Path 18" d="M18.089,2.538c4.335,4.009,6.544,13.441,12.541,15.311,5.418,1.691,11.229-3.7,14.992-6.86,3.539-2.974,6.926-7.526,12.037-6.7,6.046.971,5.008,7.322,10.055,9.322,4.182,1.657,5.224.433,9.247-1.374,9.074-4.077,27.867,9.305,35.17,13.105" transform="translate(0 0)" fill="none" stroke="#1fc980" stroke-linecap="round" stroke-linejoin="round" stroke-width="1.5"/>
    <path id="Path_19" data-name="Path 19" d="M8.811,0c.135,4.687,3.74,7.575,4.745,11.947C10.2,11.277,3.333,10.223,0,11.593" transform="translate(103.119 17.109)" fill="none" stroke="#1fc980" stroke-linecap="round" stroke-linejoin="round" stroke-width="1.5"/>
  </g>
</svg>
