<svg id="Layer_1" data-name="Layer 1" xmlns="http://www.w3.org/2000/svg" viewBox="0 0 79 74"><defs><style>.cls-1{fill:#b3b3b3;}</style></defs><path class="cls-1" d="M35,46.37l-5,15.26H23.44L39.93,13.1h7.56L64.05,61.63h-6.7L52.17,46.37Zm15.91-4.9-4.75-14c-1.08-3.17-1.8-6.05-2.52-8.86h-.14c-.72,2.88-1.52,5.84-2.45,8.79l-4.76,14Z"/><path d="M26.79,46.85l-5,15.27H15.27L31.76,13.59h7.56L55.88,62.12h-6.7L44,46.85ZM42.7,42,38,28c-1.08-3.17-1.8-6-2.52-8.86h-.14C34.57,22,33.77,25,32.84,27.92L28.08,42Z"/></svg>